<svg viewBox="0 0 858 268" fill="none" xmlns="http://www.w3.org/2000/svg">
<path d="M0.299805 139.3V0.200195H16.4998V124.3H97.7998V139.4H0.299805V139.3Z" fill="black"/>
<path d="M180.2 0.200195H183.9L252.5 139.4H234L221.7 115.3H142.6L130.3 139.4H112L180.2 0.200195ZM183 33.1002H181.2L151.7 97.6002L150.5 99.7002H213.9L212.7 97.6002L183 33.1002Z" fill="black"/>
<path d="M231.6 0.200195H345.5V15.3002H296.6V139.4H280.4V15.2002H231.7V0.200195H231.6Z" fill="black"/>
<path d="M385.2 139.3H369V0.200195H385.2V139.3Z" fill="black"/>
<path d="M546.6 139.3H541.8L441.3 34.3002V139.3H425.1V0.200195H429.9L530.4 104.8V0.200195H546.6V139.3Z" fill="black"/>
<path d="M635.9 0.200195H641.5L714.6 139.4H676.5L668.8 123H608.3L600.9 139.4H563.1L635.9 0.200195ZM639.4 59.0002H637.6L620.4 95.4002L618.3 99.1002H658.6L656.5 95.4002L639.4 59.0002Z" fill="black"/>
<path d="M784 139.3H726.2V0.200195H784C830.5 0.200195 857.7 29.9002 857.7 69.7002C857.7 109.7 830.3 139.3 784 139.3ZM759.8 29.2002V110.4H781.3C805.4 110.4 822.8 96.7002 822.8 69.8002C822.8 42.9002 805.4 29.2002 781.3 29.2002C781.4 29.2002 759.8 29.2002 759.8 29.2002Z" fill="black"/>
<path d="M722.4 267H701.7L709.1 214.4H729.8C745.4 214.4 754.4 223.8 754.4 237.1C754.4 254.3 741.5 267 722.4 267ZM718.3 223.7L713.6 257.7H723C734.3 257.7 743.3 250.7 743.3 238.1C743.3 228.7 736.9 223.6 727.7 223.6H718.3V223.7Z" fill="black"/>
<path d="M763.5 253.3C763.5 253.3 769.7 258.4 778.3 258.4C785.3 258.4 788.1 255.4 788.1 251.8C788.1 248.8 785.7 247.1 777.8 244.8C767.4 241.7 761.7 237.8 761.7 230.6C761.7 220.4 769.8 213.2 784.6 213.2C798.7 213.2 803.7 218.6 803.7 218.6L796.9 227.3C796.9 227.3 791.9 222.9 783.3 222.9C777 222.9 773.9 225.2 773.9 228.7C773.9 231.5 776.5 233 783.9 235C795.2 238.2 800.6 242.4 800.6 249.6C800.6 259.4 793.2 268 777.3 268C762.8 268 756.7 261.2 756.7 261.2L763.5 253.3Z" fill="black"/>
<path d="M814.6 214.4H838.5C850.5 214.4 857.7 220.1 857.7 230C857.7 243.7 847 251.2 832.6 251.2H820.1L817.9 267H807.3L814.6 214.4ZM836.7 223.7H823.9L821.3 242.2H834.3C841.9 242.2 846.7 238.8 846.7 231.6C846.6 226.4 842.9 223.7 836.7 223.7Z" fill="black"/>
</svg>
